<svg xmlns="http://www.w3.org/2000/svg" width="360.0028076171875" height="349.095703125" viewBox="-181.3031463623047 -189.98638916015625 360.0028076171875 349.095703125"><title>Neo4j Graph Visualization</title><desc>Created using Neo4j (http://www.neo4j.com/)</desc><g class="layer relationships"><g class="relationship" transform="translate(6.52588924288268 130.10929119981952) rotate(287.63668760694736)"><path class="outline" fill="#A5ABB6" stroke="none" d="M 25 0.5 L 52.34861645717392 0.5 L 52.34861645717392 -0.5 L 25 -0.5 Z M 97.91111645717392 0.5 L 125.25973291434784 0.5 L 125.25973291434784 3.5 L 132.25973291434784 0 L 125.25973291434784 -3.5 L 125.25973291434784 -0.5 L 97.91111645717392 -0.5 Z"/><text text-anchor="middle" pointer-events="none" font-size="8px" fill="#000000" x="75.12986645717392" y="3" font-family="sans-serif">ACTED_IN</text></g><g class="relationship" transform="translate(100.84999310414928 99.63550576790216) rotate(206.38492202494325)"><path class="outline" fill="#A5ABB6" stroke="none" d="M 25 0.5 L 41.9006023435044 0.5 L 41.9006023435044 -0.5 L 25 -0.5 Z M 93.6818523435044 0.5 L 110.5824546870088 0.5 L 110.5824546870088 3.5 L 117.5824546870088 0 L 110.5824546870088 -3.5 L 110.5824546870088 -0.5 L 93.6818523435044 -0.5 Z"/><text text-anchor="middle" pointer-events="none" font-size="8px" fill="#000000" x="67.7912273435044" y="3" transform="rotate(180 67.7912273435044 0)" font-family="sans-serif">PRODUCED</text></g><g class="relationship" transform="translate(100.84999310414928 99.63550576790216) rotate(229.9274223880691)"><path class="outline" fill="#A5ABB6" stroke="none" d="M 25 0.5 L 76.12441277793397 0.5 L 76.12441277793397 -0.5 L 25 -0.5 Z M 127.90566277793397 0.5 L 179.03007555586794 0.5 L 179.03007555586794 3.5 L 186.03007555586794 0 L 179.03007555586794 -3.5 L 179.03007555586794 -0.5 L 127.90566277793397 -0.5 Z"/><text text-anchor="middle" pointer-events="none" font-size="8px" fill="#000000" x="102.01503777793397" y="3" transform="rotate(180 102.01503777793397 0)" font-family="sans-serif">PRODUCED</text></g><g class="relationship" transform="translate(100.84999310414928 99.63550576790216) rotate(248.6468442372531)"><path class="outline" fill="#A5ABB6" stroke="none" d="M 25 0.5 L 34.706522163360404 0.5 L 34.706522163360404 -0.5 L 25 -0.5 Z M 86.4877721633604 0.5 L 96.19429432672081 0.5 L 96.19429432672081 3.5 L 103.19429432672081 0 L 96.19429432672081 -3.5 L 96.19429432672081 -0.5 L 86.4877721633604 -0.5 Z"/><text text-anchor="middle" pointer-events="none" font-size="8px" fill="#000000" x="60.597147163360404" y="3" transform="rotate(180 60.597147163360404 0)" font-family="sans-serif">PRODUCED</text></g><g class="relationship" transform="translate(149.69969055689404 12.91205813390937) rotate(532.4640267917325)"><path class="outline" fill="#A5ABB6" stroke="none" d="M 25 0.5 L 62.1134928443815 0.5 L 62.1134928443815 -0.5 L 25 -0.5 Z M 109.0041178443815 0.5 L 146.117610688763 0.5 L 146.117610688763 3.5 L 153.117610688763 0 L 146.117610688763 -3.5 L 146.117610688763 -0.5 L 109.0041178443815 -0.5 Z"/><text text-anchor="middle" pointer-events="none" font-size="8px" fill="#000000" x="85.5588053443815" y="3" transform="rotate(180 85.5588053443815 0)" font-family="sans-serif">DIRECTED</text></g><g class="relationship" transform="translate(149.69969055689404 12.91205813390937) rotate(202.03695368981062)"><path class="outline" fill="#A5ABB6" stroke="none" d="M 25 0.5 L 72.68436837219582 0.5 L 72.68436837219582 -0.5 L 25 -0.5 Z M 119.57499337219582 0.5 L 167.25936174439164 0.5 L 167.25936174439164 3.5 L 174.25936174439164 0 L 167.25936174439164 -3.5 L 167.25936174439164 -0.5 L 119.57499337219582 -0.5 Z"/><text text-anchor="middle" pointer-events="none" font-size="8px" fill="#000000" x="96.12968087219582" y="3" transform="rotate(180 96.12968087219582 0)" font-family="sans-serif">DIRECTED</text></g><g class="relationship" transform="translate(149.69969055689404 12.91205813390937) rotate(198.88095068834264)"><path class="outline" fill="#A5ABB6" stroke="none" d="M 25 0.5 L 25.091103299472337 0.5 L 25.091103299472337 -0.5 L 25 -0.5 Z M 68.86844704947234 0.5 L 68.95955034894467 0.5 L 68.95955034894467 3.5 L 75.95955034894467 0 L 68.95955034894467 -3.5 L 68.95955034894467 -0.5 L 68.86844704947234 -0.5 Z"/><text text-anchor="middle" pointer-events="none" font-size="8px" fill="#000000" x="46.97977517447234" y="3" transform="rotate(180 46.97977517447234 0)" font-family="sans-serif">DIRECT…</text></g><g class="relationship" transform="translate(116.01931454771258 -109.68519451039383) rotate(494.39338535720253)"><path class="outline" fill="#A5ABB6" stroke="none" d="M 25 0.5 L 75.18640088073803 0.5 L 75.18640088073803 -0.5 L 25 -0.5 Z M 122.07702588073803 0.5 L 172.26342676147607 0.5 L 172.26342676147607 3.5 L 179.26342676147607 0 L 172.26342676147607 -3.5 L 172.26342676147607 -0.5 L 122.07702588073803 -0.5 Z"/><text text-anchor="middle" pointer-events="none" font-size="8px" fill="#000000" x="98.63171338073803" y="3" transform="rotate(180 98.63171338073803 0)" font-family="sans-serif">DIRECTED</text></g><g class="relationship" transform="translate(116.01931454771258 -109.68519451039383) rotate(522.4250299256871)"><path class="outline" fill="#A5ABB6" stroke="none" d="M 25 0.5 L 52.26265719374369 0.5 L 52.26265719374369 -0.5 L 25 -0.5 Z M 99.15328219374369 0.5 L 126.41593938748738 0.5 L 126.41593938748738 3.5 L 133.41593938748738 0 L 126.41593938748738 -3.5 L 126.41593938748738 -0.5 L 99.15328219374369 -0.5 Z"/><text text-anchor="middle" pointer-events="none" font-size="8px" fill="#000000" x="75.70796969374369" y="3" transform="rotate(180 75.70796969374369 0)" font-family="sans-serif">DIRECTED</text></g><g class="relationship" transform="translate(116.01931454771258 -109.68519451039383) rotate(484.51821601029724)"><path class="outline" fill="#A5ABB6" stroke="none" d="M 25 0.5 L 27.625282277682416 0.5 L 27.625282277682416 -0.5 L 25 -0.5 Z M 74.51590727768242 0.5 L 77.14118955536483 0.5 L 77.14118955536483 3.5 L 84.14118955536483 0 L 77.14118955536483 -3.5 L 77.14118955536483 -0.5 L 74.51590727768242 -0.5 Z"/><text text-anchor="middle" pointer-events="none" font-size="8px" fill="#000000" x="51.070594777682416" y="3" transform="rotate(180 51.070594777682416 0)" font-family="sans-serif">DIRECTED</text></g><g class="relationship" transform="translate(30.786479510121314 -160.98639032789697) rotate(466.2956046597345)"><path class="outline" fill="#A5ABB6" stroke="none" d="M 25 0.5 L 76.47600153275171 0.5 L 76.47600153275171 -0.5 L 25 -0.5 Z M 122.03850153275171 0.5 L 173.51450306550342 0.5 L 173.51450306550342 3.5 L 180.51450306550342 0 L 173.51450306550342 -3.5 L 173.51450306550342 -0.5 L 122.03850153275171 -0.5 Z"/><text text-anchor="middle" pointer-events="none" font-size="8px" fill="#000000" x="99.25725153275171" y="3" transform="rotate(180 99.25725153275171 0)" font-family="sans-serif">ACTED_IN</text></g><g class="relationship" transform="translate(30.786479510121314 -160.98639032789697) rotate(483.56921316498637)"><path class="outline" fill="#A5ABB6" stroke="none" d="M 25 0.5 L 33.20821115199247 0.5 L 33.20821115199247 -0.5 L 25 -0.5 Z M 78.77071115199247 0.5 L 86.97892230398494 0.5 L 86.97892230398494 3.5 L 93.97892230398494 0 L 86.97892230398494 -3.5 L 86.97892230398494 -0.5 L 78.77071115199247 -0.5 Z"/><text text-anchor="middle" pointer-events="none" font-size="8px" fill="#000000" x="55.98946115199247" y="3" transform="rotate(180 55.98946115199247 0)" font-family="sans-serif">ACTED_IN</text></g><g class="relationship" transform="translate(30.786479510121314 -160.98639032789697) rotate(440.59766814072896)"><path class="outline" fill="#A5ABB6" stroke="none" d="M 25 0.5 L 45.294153787985564 0.5 L 45.294153787985564 -0.5 L 25 -0.5 Z M 90.85665378798556 0.5 L 111.15080757597113 0.5 L 111.15080757597113 3.5 L 118.15080757597113 0 L 111.15080757597113 -3.5 L 111.15080757597113 -0.5 L 90.85665378798556 -0.5 Z"/><text text-anchor="middle" pointer-events="none" font-size="8px" fill="#000000" x="68.07540378798556" y="3" font-family="sans-serif">ACTED_IN</text></g><g class="relationship" transform="translate(-94.22997612182837 -142.28584272791227) rotate(429.3339424865893)"><path class="outline" fill="#A5ABB6" stroke="none" d="M 25 0.5 L 69.13752874784032 0.5 L 69.13752874784032 -0.5 L 25 -0.5 Z M 114.70002874784032 0.5 L 158.83755749568064 0.5 L 158.83755749568064 3.5 L 165.83755749568064 0 L 158.83755749568064 -3.5 L 158.83755749568064 -0.5 L 114.70002874784032 -0.5 Z"/><text text-anchor="middle" pointer-events="none" font-size="8px" fill="#000000" x="91.91877874784032" y="3" font-family="sans-serif">ACTED_IN</text></g><g class="relationship" transform="translate(-94.22997612182837 -142.28584272791227) rotate(413.63413227525257)"><path class="outline" fill="#A5ABB6" stroke="none" d="M 25 0.5 L 25.887582706783768 0.5 L 25.887582706783768 -0.5 L 25 -0.5 Z M 67.00086395678377 0.5 L 67.88844666356754 0.5 L 67.88844666356754 3.5 L 74.88844666356754 0 L 67.88844666356754 -3.5 L 67.88844666356754 -0.5 L 67.00086395678377 -0.5 Z"/><text text-anchor="middle" pointer-events="none" font-size="8px" fill="#000000" x="46.44422333178377" y="3" font-family="sans-serif">ACTED…</text></g><g class="relationship" transform="translate(-94.22997612182837 -142.28584272791227) rotate(399.5444676494616)"><path class="outline" fill="#A5ABB6" stroke="none" d="M 25 0.5 L 69.94267769544838 0.5 L 69.94267769544838 -0.5 L 25 -0.5 Z M 115.50517769544838 0.5 L 160.44785539089676 0.5 L 160.44785539089676 3.5 L 167.44785539089676 0 L 160.44785539089676 -3.5 L 160.44785539089676 -0.5 L 115.50517769544838 -0.5 Z"/><text text-anchor="middle" pointer-events="none" font-size="8px" fill="#000000" x="92.72392769544838" y="3" font-family="sans-serif">ACTED_IN</text></g><g class="relationship" transform="translate(-152.30314472407534 -17.488142051471424) rotate(383.20132253558205)"><path class="outline" fill="#A5ABB6" stroke="none" d="M 25 0.5 L 41.94859205689329 0.5 L 41.94859205689329 -0.5 L 25 -0.5 Z M 87.51109205689329 0.5 L 104.45968411378658 0.5 L 104.45968411378658 3.5 L 111.45968411378658 0 L 104.45968411378658 -3.5 L 104.45968411378658 -0.5 L 87.51109205689329 -0.5 Z"/><text text-anchor="middle" pointer-events="none" font-size="8px" fill="#000000" x="64.72984205689329" y="3" font-family="sans-serif">ACTED_IN</text></g><g class="relationship" transform="translate(-152.30314472407534 -17.488142051471424) rotate(339.2835565434792)"><path class="outline" fill="#A5ABB6" stroke="none" d="M 25 0.5 L 36.42355985206582 0.5 L 36.42355985206582 -0.5 L 25 -0.5 Z M 81.98605985206582 0.5 L 93.40961970413164 0.5 L 93.40961970413164 3.5 L 100.40961970413164 0 L 93.40961970413164 -3.5 L 93.40961970413164 -0.5 L 81.98605985206582 -0.5 Z"/><text text-anchor="middle" pointer-events="none" font-size="8px" fill="#000000" x="59.20480985206582" y="3" font-family="sans-serif">ACTED_IN</text></g><g class="relationship" transform="translate(-152.30314472407534 -17.488142051471424) rotate(359.3699476146227)"><path class="outline" fill="#A5ABB6" stroke="none" d="M 25 0.5 L 76.96279992355126 0.5 L 76.96279992355126 -0.5 L 25 -0.5 Z M 122.52529992355126 0.5 L 174.48809984710252 0.5 L 174.48809984710252 3.5 L 181.48809984710252 0 L 174.48809984710252 -3.5 L 174.48809984710252 -0.5 L 122.52529992355126 -0.5 Z"/><text text-anchor="middle" pointer-events="none" font-size="8px" fill="#000000" x="99.74404992355126" y="3" font-family="sans-serif">ACTED_IN</text></g><g class="relationship" transform="translate(-122.80886565198513 79.43567632597056) rotate(335.7744870590461)"><path class="outline" fill="#A5ABB6" stroke="none" d="M 25 0.5 L 26.31522662356948 0.5 L 26.31522662356948 -0.5 L 25 -0.5 Z M 71.87772662356949 0.5 L 73.19295324713896 0.5 L 73.19295324713896 3.5 L 80.19295324713896 0 L 73.19295324713896 -3.5 L 73.19295324713896 -0.5 L 71.87772662356949 -0.5 Z"/><text text-anchor="middle" pointer-events="none" font-size="8px" fill="#000000" x="49.09647662356948" y="3" font-family="sans-serif">ACTED_IN</text></g><g class="relationship" transform="translate(-122.80886565198513 79.43567632597056) rotate(301.8600833458397)"><path class="outline" fill="#A5ABB6" stroke="none" d="M 25 0.5 L 56.8931510474802 0.5 L 56.8931510474802 -0.5 L 25 -0.5 Z M 102.4556510474802 0.5 L 134.3488020949604 0.5 L 134.3488020949604 3.5 L 141.3488020949604 0 L 134.3488020949604 -3.5 L 134.3488020949604 -0.5 L 102.4556510474802 -0.5 Z"/><text text-anchor="middle" pointer-events="none" font-size="8px" fill="#000000" x="79.6744010474802" y="3" font-family="sans-serif">ACTED_IN</text></g><g class="relationship" transform="translate(-122.80886565198513 79.43567632597056) rotate(330.73026199387016)"><path class="outline" fill="#A5ABB6" stroke="none" d="M 25 0.5 L 75.16076016933172 0.5 L 75.16076016933172 -0.5 L 25 -0.5 Z M 120.72326016933172 0.5 L 170.88402033866345 0.5 L 170.88402033866345 3.5 L 177.88402033866345 0 L 170.88402033866345 -3.5 L 170.88402033866345 -0.5 L 120.72326016933172 -0.5 Z"/><text text-anchor="middle" pointer-events="none" font-size="8px" fill="#000000" x="97.94201016933172" y="3" font-family="sans-serif">ACTED_IN</text></g></g><g class="layer nodes"><g class="node" aria-label="graph-node0" transform="translate(54.17247069323829,-19.758740322538994)" style="touch-action: none; -webkit-tap-highlight-color: rgba(0, 0, 0, 0);"><circle class="outline" cx="0" cy="0" r="25" fill="#F79767" stroke="#f36924" stroke-width="2px"/><text class="caption" text-anchor="middle" pointer-events="none" x="0" y="0" font-size="10px" fill="#FFFFFF" font-family="sans-serif"> The</text><text class="caption" text-anchor="middle" pointer-events="none" x="0" y="10" font-size="10px" fill="#FFFFFF" font-family="sans-serif"> Matrix</text></g><g class="node" aria-label="graph-node8" transform="translate(6.52588924288268,130.10929119981952)" style="touch-action: none; -webkit-tap-highlight-color: rgba(0, 0, 0, 0);"><circle class="outline" cx="0" cy="0" r="25" fill="#C990C0" stroke="#b261a5" stroke-width="2px"/><text class="caption" text-anchor="middle" pointer-events="none" x="0" y="0" font-size="10px" fill="#FFFFFF" font-family="sans-serif"> Emil</text><text class="caption" text-anchor="middle" pointer-events="none" x="0" y="10" font-size="10px" fill="#FFFFFF" font-family="sans-serif"> Eifrem</text></g><g class="node" aria-label="graph-node7" transform="translate(100.84999310414928,99.63550576790216)" style="touch-action: none; -webkit-tap-highlight-color: rgba(0, 0, 0, 0);"><circle class="outline" cx="0" cy="0" r="25" fill="#C990C0" stroke="#b261a5" stroke-width="2px"/><text class="caption" text-anchor="middle" pointer-events="none" x="0" y="5" font-size="10px" fill="#FFFFFF" font-family="sans-serif"> Joel Silver</text></g><g class="node" aria-label="graph-node6" transform="translate(149.69969055689404,12.91205813390937)" style="touch-action: none; -webkit-tap-highlight-color: rgba(0, 0, 0, 0);"><circle class="outline" cx="0" cy="0" r="25" fill="#C990C0" stroke="#b261a5" stroke-width="2px"/><text class="caption" text-anchor="middle" pointer-events="none" x="0" y="0" font-size="10px" fill="#FFFFFF" font-family="sans-serif"> Lana</text><text class="caption" text-anchor="middle" pointer-events="none" x="0" y="10" font-size="10px" fill="#FFFFFF" font-family="sans-serif"> Wach…</text></g><g class="node" aria-label="graph-node5" transform="translate(116.01931454771258,-109.68519451039383)" style="touch-action: none; -webkit-tap-highlight-color: rgba(0, 0, 0, 0);"><circle class="outline" cx="0" cy="0" r="25" fill="#C990C0" stroke="#b261a5" stroke-width="2px"/><text class="caption" text-anchor="middle" pointer-events="none" x="0" y="0" font-size="10px" fill="#FFFFFF" font-family="sans-serif"> Lilly</text><text class="caption" text-anchor="middle" pointer-events="none" x="0" y="10" font-size="10px" fill="#FFFFFF" font-family="sans-serif"> Wach…</text></g><g class="node" aria-label="graph-node4" transform="translate(30.786479510121314,-160.98639032789697)" style="touch-action: none; -webkit-tap-highlight-color: rgba(0, 0, 0, 0);"><circle class="outline" cx="0" cy="0" r="25" fill="#C990C0" stroke="#b261a5" stroke-width="2px"/><text class="caption" text-anchor="middle" pointer-events="none" x="0" y="0" font-size="10px" fill="#FFFFFF" font-family="sans-serif"> Hugo</text><text class="caption" text-anchor="middle" pointer-events="none" x="0" y="10" font-size="10px" fill="#FFFFFF" font-family="sans-serif"> Weavi…</text></g><g class="node" aria-label="graph-node3" transform="translate(-94.22997612182837,-142.28584272791227)" style="touch-action: none; -webkit-tap-highlight-color: rgba(0, 0, 0, 0);"><circle class="outline" cx="0" cy="0" r="25" fill="#C990C0" stroke="#b261a5" stroke-width="2px"/><text class="caption" text-anchor="middle" pointer-events="none" x="0" y="0" font-size="10px" fill="#FFFFFF" font-family="sans-serif"> Laurence</text><text class="caption" text-anchor="middle" pointer-events="none" x="0" y="10" font-size="10px" fill="#FFFFFF" font-family="sans-serif"> Fishb…</text></g><g class="node" aria-label="graph-node2" transform="translate(-152.30314472407534,-17.488142051471424)" style="touch-action: none; -webkit-tap-highlight-color: rgba(0, 0, 0, 0);"><circle class="outline" cx="0" cy="0" r="25" fill="#C990C0" stroke="#b261a5" stroke-width="2px"/><text class="caption" text-anchor="middle" pointer-events="none" x="0" y="5" font-size="10px" fill="#FFFFFF" font-family="sans-serif"> Carrie-A…</text></g><g class="node" aria-label="graph-node1" transform="translate(-122.80886565198513,79.43567632597056)" style="touch-action: none; -webkit-tap-highlight-color: rgba(0, 0, 0, 0);"><circle class="outline" cx="0" cy="0" r="25" fill="#C990C0" stroke="#b261a5" stroke-width="2px"/><text class="caption" text-anchor="middle" pointer-events="none" x="0" y="0" font-size="10px" fill="#FFFFFF" font-family="sans-serif"> Keanu</text><text class="caption" text-anchor="middle" pointer-events="none" x="0" y="10" font-size="10px" fill="#FFFFFF" font-family="sans-serif"> Reeves</text></g><g class="node" aria-label="graph-node9" transform="translate(-35.002191524715556,-61.850954100038955)" style="touch-action: none; -webkit-tap-highlight-color: rgba(0, 0, 0, 0);"><circle class="outline" cx="0" cy="0" r="25" fill="#F79767" stroke="#f36924" stroke-width="2px"/><text class="caption" text-anchor="middle" pointer-events="none" x="0" y="-5" font-size="10px" fill="#FFFFFF" font-family="sans-serif"> The</text><text class="caption" text-anchor="middle" pointer-events="none" x="0" y="5" font-size="10px" fill="#FFFFFF" font-family="sans-serif"> Matrix</text><text class="caption" text-anchor="middle" pointer-events="none" x="0" y="15" font-size="10px" fill="#FFFFFF" font-family="sans-serif"> Rel…</text></g><g class="node" aria-label="graph-node10" transform="translate(-26.879467560602244,36.27194160943164)" style="touch-action: none; -webkit-tap-highlight-color: rgba(0, 0, 0, 0);"><circle class="outline" cx="0" cy="0" r="25" fill="#F79767" stroke="#f36924" stroke-width="2px"/><text class="caption" text-anchor="middle" pointer-events="none" x="0" y="-5" font-size="10px" fill="#FFFFFF" font-family="sans-serif"> The</text><text class="caption" text-anchor="middle" pointer-events="none" x="0" y="5" font-size="10px" fill="#FFFFFF" font-family="sans-serif"> Matrix</text><text class="caption" text-anchor="middle" pointer-events="none" x="0" y="15" font-size="10px" fill="#FFFFFF" font-family="sans-serif"> Rev…</text></g></g></svg>