<svg xmlns="http://www.w3.org/2000/svg" width="411.3588562011719" height="528.9645385742188" viewBox="-224.01698303222656 -263.62255859375 411.3588562011719 528.9645385742188"><title>Neo4j Graph Visualization</title><desc>Created using Neo4j (http://www.neo4j.com/)</desc><g class="layer relationships"><g class="relationship" transform="translate(158.3419040167503 236.34199211195087) rotate(255.15364254810459)"><path class="outline" fill="#A5ABB6" stroke="none" d="M 21.40063509461097,12.933012701892217 L 21.90063509461097,12.06698729810778 A 101.36215355184213 101.36215355184213 0 0 0 40.146231756116855,20.31720791970824 L 39.82623579137223,21.264626825233748 A 102.36215355184213 102.36215355184213 0 0 1 21.40063509461097,12.933012701892217 Z M 100.89526372329075,22.653243977455773 L 100.61866196306676,21.692259343738357 A 101.36215355184213 101.36215355184213 0 0 0 119.22040215545186,14.279891324377791 L 117.84004404394825,11.6163201344138 L 125.66546128395177,11.50298426253004 L 121.06087963745667,17.831319577663113 L 119.68052152595305,15.167748387699122 A 102.36215355184213 102.36215355184213 0 0 1 100.89526372329075,22.653243977455773"/><text text-anchor="middle" pointer-events="none" font-size="8px" fill="#000000" x="70.26611940699108" y="29.120617762028886" transform="rotate(180 70.26611940699108 26.120617762028886)" font-family="sans-serif">PublicTransport</text></g><g class="relationship" transform="translate(120.45555981391914 93.41626732269734) rotate(278.350025600346)"><path class="outline" fill="#A5ABB6" stroke="none" d="M 25 0.5 L 52.21951313978457 0.5 L 52.21951313978457 -0.5 L 25 -0.5 Z M 71.55545063978457 0.5 L 98.77496377956913 0.5 L 98.77496377956913 3.5 L 105.77496377956913 0 L 98.77496377956913 -3.5 L 98.77496377956913 -0.5 L 71.55545063978457 -0.5 Z"/><text text-anchor="middle" pointer-events="none" font-size="8px" fill="#000000" x="61.88748188978457" y="3" font-family="sans-serif">trek</text></g><g class="relationship" transform="translate(139.44671472054577 -35.97239982732833) rotate(195.20998118526705)"><path class="outline" fill="#A5ABB6" stroke="none" d="M 25 0.5 L 81.65367373792158 0.5 L 81.65367373792158 -0.5 L 25 -0.5 Z M 100.98961123792158 0.5 L 157.64328497584316 0.5 L 157.64328497584316 3.5 L 164.64328497584316 0 L 157.64328497584316 -3.5 L 157.64328497584316 -0.5 L 100.98961123792158 -0.5 Z"/><text text-anchor="middle" pointer-events="none" font-size="8px" fill="#000000" x="91.32164248792158" y="3" transform="rotate(180 91.32164248792158 0)" font-family="sans-serif">trek</text></g><g class="relationship" transform="translate(120.45555981391914 93.41626732269734) rotate(250.5048037445847)"><path class="outline" fill="#A5ABB6" stroke="none" d="M 24.018736134675446,-6.953439040707552 L 24.277555179777966,-5.987513214418485 A 277.25255124828385 277.25255124828385 0 0 1 83.8887569730178,-15.168442865737575 L 83.84494479268479,-16.167482651158764 A 278.25255124828385 278.25255124828385 0 0 0 24.018736134675446,-6.953439040707552 Z M 103.21099126829752,-16.342137368120177 L 103.18520463852535,-15.342469898545914 A 277.25255124828385 277.25255124828385 0 0 1 162.9522951207528,-7.238165870064192 L 162.22822784988324,-4.326855754797269 L 169.86602993485388,-6.033893923913029 L 163.9177181485789,-11.119912690420087 L 163.19365087770933,-8.208602575153165 A 278.25255124828385 278.25255124828385 0 0 0 103.21099126829752,-16.342137368120177"/><text text-anchor="middle" pointer-events="none" font-size="8px" fill="#000000" x="93.53095715724311" y="-12.923369962630943" transform="rotate(180 93.53095715724311 -15.923369962630943)" font-family="sans-serif">trek</text></g><g class="relationship" transform="translate(55.66999565443255 -89.58128032837612) rotate(261.80106303360515)"><path class="outline" fill="#A5ABB6" stroke="none" d="M 24.018736134675446,-6.953439040707552 L 24.277555179777966,-5.987513214418485 A 184.0303697833429 184.0303697833429 0 0 1 60.099662602770714,-11.878955652745333 L 60.035496795963404,-12.876894904021071 A 185.0303697833429 185.0303697833429 0 0 0 24.018736134675446,-6.953439040707552 Z M 79.41360458096942,-13.105908856657493 L 79.37304105168073,-12.106731895307973 A 184.0303697833429 184.0303697833429 0 0 1 115.32437617006727,-7.063520871166996 L 114.61661924172635,-4.148202684350087 L 122.24474476069688,-5.897974402841004 L 116.26805207452183,-10.950611786922874 L 115.56029514618092,-8.035293600105966 A 185.0303697833429 185.0303697833429 0 0 0 79.41360458096942,-13.105908856657493"/><text text-anchor="middle" pointer-events="none" font-size="8px" fill="#000000" x="69.72745903777763" y="-9.745310732701768" transform="rotate(180 69.72745903777763 -12.745310732701768)" font-family="sans-serif">trek</text></g><g class="relationship" transform="translate(34.77197636517186 -234.62254952464514) rotate(477.74626201300157)"><path class="outline" fill="#A5ABB6" stroke="none" d="M 24.018736134675446,6.953439040707552 L 24.277555179777966,5.987513214418485 A 226.632783341777 226.632783341777 0 0 0 70.9471808915336,13.392595939423956 L 70.89428803691243,14.391196132659474 A 227.632783341777 227.632783341777 0 0 1 24.018736134675446,6.953439040707552 Z M 90.26590159896365,14.59174359030169 L 90.23369417374963,13.592262383994608 A 226.632783341777 226.632783341777 0 0 0 137.04662507953,7.154971474755468 L 136.33032726248334,4.241740032302911 L 143.96354808142706,5.969148475388717 L 138.0016888355922,11.03928006469221 L 137.28539101854554,8.126048622239653 A 227.632783341777 227.632783341777 0 0 1 90.26590159896365,14.59174359030169"/><text text-anchor="middle" pointer-events="none" font-size="8px" fill="#000000" x="80.58313645201589" y="17.19766728404477" transform="rotate(180 80.58313645201589 14.197667284044769)" font-family="sans-serif">trek</text></g><g class="relationship" transform="translate(34.77197636517186 -234.62254952464514) rotate(477.74626201300157)"><path class="outline" fill="#A5ABB6" stroke="none" d="M 24.018736134675446,-6.953439040707552 L 24.277555179777966,-5.987513214418485 A 226.632783341777 226.632783341777 0 0 1 57.460936360856174,-12.273678374329876 L 57.34853647317553,-13.267341428513419 A 227.632783341777 227.632783341777 0 0 0 24.018736134675446,-6.953439040707552 Z M 103.83201712636533,-13.748568448528943 L 103.74021320837798,-12.752791344633607 A 226.632783341777 226.632783341777 0 0 1 137.04662507953,-7.154971474755468 L 136.33032726248334,-4.241740032302911 L 143.96354808142706,-5.969148475388717 L 138.0016888355922,-11.03928006469221 L 137.28539101854554,-8.126048622239653 A 227.632783341777 227.632783341777 0 0 0 103.83201712636533,-13.748568448528943"/><text text-anchor="middle" pointer-events="none" font-size="8px" fill="#000000" x="80.58313645201592" y="-11.197667284044769" transform="rotate(180 80.58313645201592 -14.197667284044769)" font-family="sans-serif">twowheeler</text></g><g class="relationship" transform="translate(55.66999565443255 -89.58128032837612) rotate(261.80106303360515)"><path class="outline" fill="#A5ABB6" stroke="none" d="M 24.018736134675446,6.953439040707552 L 24.277555179777966,5.987513214418485 A 184.0303697833429 184.0303697833429 0 0 0 46.64388358155879,10.515772537799563 L 46.50660060916053,11.50630440780148 A 185.0303697833429 185.0303697833429 0 0 1 24.018736134675446,6.953439040707552 Z M 92.97111339536701,12.055430351807587 L 92.85727806302096,11.06193072065031 A 184.0303697833429 184.0303697833429 0 0 0 115.32437617006727,7.063520871166996 L 114.61661924172635,4.148202684350087 L 122.24474476069688,5.897974402841004 L 116.26805207452183,10.950611786922874 L 115.56029514618092,8.035293600105966 A 185.0303697833429 185.0303697833429 0 0 1 92.97111339536701,12.055430351807587"/><text text-anchor="middle" pointer-events="none" font-size="8px" fill="#000000" x="69.72745903777769" y="15.745310732701768" transform="rotate(180 69.72745903777769 12.745310732701768)" font-family="sans-serif">twowheeler</text></g><g class="relationship" transform="translate(55.66999565443255 -89.58128032837612) rotate(210.5104334692693)"><path class="outline" fill="#A5ABB6" stroke="none" d="M 24.018736134675446,-6.953439040707552 L 24.277555179777966,-5.987513214418485 A 244.23290397146457 244.23290397146457 0 0 1 75.44152333268754,-14.012195067877656 L 75.39219271981891,-15.010977572046613 A 245.23290397146457 245.23290397146457 0 0 0 24.018736134675446,-6.953439040707552 Z M 94.76165628936867,-15.201704745699743 L 94.73200295165047,-14.20214450261173 A 244.23290397146457 244.23290397146457 0 0 1 146.0440699134064,-7.186523353101132 L 145.32482545297987,-4.274018004411488 L 152.9597898037533,-5.993703836887556 L 147.0030625273084,-11.069863818020657 L 146.28381806688188,-8.157358469331013 A 245.23290397146457 245.23290397146457 0 0 0 94.76165628936867,-15.201704745699743"/><text text-anchor="middle" pointer-events="none" font-size="8px" fill="#000000" x="85.07996378998871" y="-11.797683894117682" transform="rotate(180 85.07996378998871 -14.797683894117682)" font-family="sans-serif">trek</text></g><g class="relationship" transform="translate(-97.02073323833889 -179.5604495118571) rotate(337.32515882871235)"><path class="outline" fill="#A5ABB6" stroke="none" d="M 21.40063509461097,12.933012701892217 L 21.90063509461097,12.06698729810778 A 96.23785538619454 96.23785538619454 0 0 0 58.16990991448326,24.228112111643327 L 58.04678110175491,25.220502808635246 A 97.23785538619454 97.23785538619454 0 0 1 21.40063509461097,12.933012701892217 Z M 77.44496188042699,25.676486767634685 L 77.36859862598017,24.679406703963622 A 96.23785538619454 96.23785538619454 0 0 0 114.16922989543492,14.235901982873134 L 112.79296272082185,11.570214704874733 L 120.6185447398667,11.468893121775682 L 116.00425279491903,17.790151686871003 L 114.62798562030595,15.124464408872601 A 97.23785538619454 97.23785538619454 0 0 1 77.44496188042699,25.676486767634685"/><text text-anchor="middle" pointer-events="none" font-size="8px" fill="#000000" x="67.74621927482121" y="28.433699592956657" font-family="sans-serif">trek</text></g><g class="relationship" transform="translate(-97.02073323833889 -179.5604495118571) rotate(337.32515882871235)"><path class="outline" fill="#A5ABB6" stroke="none" d="M 25 0.5 L 56.91044331992671 0.5 L 56.91044331992671 -0.5 L 25 -0.5 Z M 78.92216206992671 0.5 L 110.83260538985343 0.5 L 110.83260538985343 3.5 L 117.83260538985343 0 L 110.83260538985343 -3.5 L 110.83260538985343 -0.5 L 78.92216206992671 -0.5 Z"/><text text-anchor="middle" pointer-events="none" font-size="8px" fill="#000000" x="67.91630269492671" y="3" font-family="sans-serif">road</text></g><g class="relationship" transform="translate(-97.02073323833889 -179.5604495118571) rotate(337.32515882871235)"><path class="outline" fill="#A5ABB6" stroke="none" d="M 21.40063509461097,-12.933012701892217 L 21.90063509461097,-12.06698729810778 A 96.23785538619454 96.23785538619454 0 0 1 44.93838731214064,-21.63466575345244 L 44.67777078681473,-22.600108152939356 A 97.23785538619454 97.23785538619454 0 0 0 21.40063509461097,-12.933012701892217 Z M 90.92233082135118,-23.68715738746964 L 90.70736548762775,-22.710535707750623 A 96.23785538619454 96.23785538619454 0 0 1 114.16922989543492,-14.235901982873134 L 112.79296272082185,-11.570214704874733 L 120.6185447398667,-11.468893121775682 L 116.00425279491903,-17.790151686871003 L 114.62798562030595,-15.124464408872601 A 97.23785538619454 97.23785538619454 0 0 0 90.92233082135118,-23.68715738746964"/><text text-anchor="middle" pointer-events="none" font-size="8px" fill="#000000" x="67.7462192748212" y="-22.433699592956657" font-family="sans-serif">twowheeler</text></g><g class="relationship" transform="translate(-97.02073323833889 -179.5604495118571) rotate(491.43191390648445)"><path class="outline" fill="#A5ABB6" stroke="none" d="M 25 0.5 L 60.87757781927449 0.5 L 60.87757781927449 -0.5 L 25 -0.5 Z M 80.21351531927449 0.5 L 116.09109313854898 0.5 L 116.09109313854898 3.5 L 123.09109313854898 0 L 116.09109313854898 -3.5 L 116.09109313854898 -0.5 L 80.21351531927449 -0.5 Z"/><text text-anchor="middle" pointer-events="none" font-size="8px" fill="#000000" x="70.54554656927449" y="3" transform="rotate(180 70.54554656927449 0)" font-family="sans-serif">trek</text></g><g class="relationship" transform="translate(-195.01698960513247 -68.53024819228789) rotate(353.5226436769856)"><path class="outline" fill="#A5ABB6" stroke="none" d="M 25 0.5 L 63.05030477512207 0.5 L 63.05030477512207 -0.5 L 25 -0.5 Z M 82.38624227512207 0.5 L 120.43654705024414 0.5 L 120.43654705024414 3.5 L 127.43654705024414 0 L 120.43654705024414 -3.5 L 120.43654705024414 -0.5 L 82.38624227512207 -0.5 Z"/><text text-anchor="middle" pointer-events="none" font-size="8px" fill="#000000" x="72.71827352512207" y="3" font-family="sans-serif">trek</text></g><g class="relationship" transform="translate(55.66999565443255 -89.58128032837612) rotate(210.5104334692693)"><path class="outline" fill="#A5ABB6" stroke="none" d="M 24.018736134675446,6.953439040707552 L 24.277555179777966,5.987513214418485 A 244.23290397146457 244.23290397146457 0 0 0 61.94668636711252,12.970173292920634 L 61.842101786632895,13.964689288531531 A 245.23290397146457 245.23290397146457 0 0 1 24.018736134675446,6.953439040707552 Z M 108.32972303844653,14.422443452934544 L 108.24474243212225,13.426060847431643 A 244.23290397146457 244.23290397146457 0 0 0 146.0440699134064,7.186523353101132 L 145.32482545297987,4.274018004411488 L 152.9597898037533,5.993703836887556 L 147.0030625273084,11.069863818020657 L 146.28381806688188,8.157358469331013 A 245.23290397146457 245.23290397146457 0 0 1 108.32972303844653,14.422443452934544"/><text text-anchor="middle" pointer-events="none" font-size="8px" fill="#000000" x="85.07996378998878" y="17.797683894117682" transform="rotate(180 85.07996378998878 14.797683894117682)" font-family="sans-serif">twowheeler</text></g><g class="relationship" transform="translate(120.45555981391914 93.41626732269734) rotate(250.5048037445847)"><path class="outline" fill="#A5ABB6" stroke="none" d="M 24.018736134675446,6.953439040707552 L 24.277555179777966,5.987513214418485 A 277.25255124828385 277.25255124828385 0 0 0 70.38158224348427,14.245219575246267 L 70.28905211747784,15.240929460594998 A 278.25255124828385 278.25255124828385 0 0 1 24.018736134675446,6.953439040707552 Z M 116.78139005419149,15.660225476094809 L 116.70683334585216,14.663008700643445 A 277.25255124828385 277.25255124828385 0 0 0 162.9522951207528,7.238165870064192 L 162.22822784988324,4.326855754797269 L 169.86602993485388,6.033893923913029 L 163.9177181485789,11.119912690420087 L 163.19365087770933,8.208602575153165 A 278.25255124828385 278.25255124828385 0 0 1 116.78139005419149,15.660225476094809"/><text text-anchor="middle" pointer-events="none" font-size="8px" fill="#000000" x="93.53095715724321" y="18.923369962630943" transform="rotate(180 93.53095715724321 15.923369962630943)" font-family="sans-serif">twowheeler</text></g><g class="relationship" transform="translate(120.45555981391914 93.41626732269734) rotate(490.7154227463133)"><path class="outline" fill="#A5ABB6" stroke="none" d="M 25 0.5 L 68.67836199690693 0.5 L 68.67836199690693 -0.5 L 25 -0.5 Z M 88.01429949690693 0.5 L 131.69266149381386 0.5 L 131.69266149381386 3.5 L 138.69266149381386 0 L 131.69266149381386 -3.5 L 131.69266149381386 -0.5 L 88.01429949690693 -0.5 Z"/><text text-anchor="middle" pointer-events="none" font-size="8px" fill="#000000" x="78.34633074690693" y="3" transform="rotate(180 78.34633074690693 0)" font-family="sans-serif">trek</text></g><g class="relationship" transform="translate(13.678435173161484 217.48855705888474) rotate(271.9565599534193)"><path class="outline" fill="#A5ABB6" stroke="none" d="M 21.40063509461097,-12.933012701892217 L 21.90063509461097,-12.06698729810778 A 99.0024617102675 99.0024617102675 0 0 1 59.525985193867385,-24.615933131032293 L 59.406029785176315,-25.60871241160062 A 100.0024617102675 100.0024617102675 0 0 0 21.40063509461097,-12.933012701892217 Z M 78.8033995753345,-26.056519226528223 L 78.72938606107688,-25.05926198804498 A 99.0024617102675 99.0024617102675 0 0 1 116.89375198080188,-14.259994163112482 L 115.51524425750334,-11.595464850681058 L 123.34073833035829,-11.487564360821132 L 118.73176227853325,-17.81269991302105 L 117.35325455523471,-15.148170600589625 A 100.0024617102675 100.0024617102675 0 0 0 78.8033995753345,-26.056519226528223"/><text text-anchor="middle" pointer-events="none" font-size="8px" fill="#000000" x="69.10536844167447" y="-22.80429724154986" font-family="sans-serif">trek</text></g><g class="relationship" transform="translate(18.64760516828022 72.02826067256352) rotate(318.2016366197754)"><path class="outline" fill="#A5ABB6" stroke="none" d="M 21.40063509461097,12.933012701892217 L 21.90063509461097,12.06698729810778 A 115.77514041099462 115.77514041099462 0 0 0 67.77329669711168,26.95278590177668 L 67.6695187309581,27.94738639129045 A 116.77514041099462 116.77514041099462 0 0 1 21.40063509461097,12.933012701892217 Z M 87.06203279279057,28.351154451020506 L 86.9997436149135,27.35309630726364 A 115.77514041099462 115.77514041099462 0 0 0 133.45225073921546,14.389583495019833 L 132.0616919737861,11.731323477661181 L 139.88661724062388,11.587989711911142 L 135.30632909312126,17.933930184831368 L 133.91577032769192,15.275670167472716 A 116.77514041099462 116.77514041099462 0 0 1 87.06203279279057,28.351154451020506"/><text text-anchor="middle" pointer-events="none" font-size="8px" fill="#000000" x="77.36778601758589" y="31.052720158660364" font-family="sans-serif">trek</text></g><g class="relationship" transform="translate(18.64760516828022 72.02826067256352) rotate(318.2016366197754)"><path class="outline" fill="#A5ABB6" stroke="none" d="M 25 0.5 L 66.51353265097295 0.5 L 66.51353265097295 -0.5 L 25 -0.5 Z M 88.52525140097295 0.5 L 130.0387840519459 0.5 L 130.0387840519459 3.5 L 137.0387840519459 0 L 130.0387840519459 -3.5 L 130.0387840519459 -0.5 L 88.52525140097295 -0.5 Z"/><text text-anchor="middle" pointer-events="none" font-size="8px" fill="#000000" x="77.51939202597295" y="3" font-family="sans-serif">road</text></g><g class="relationship" transform="translate(18.64760516828022 72.02826067256352) rotate(318.2016366197754)"><path class="outline" fill="#A5ABB6" stroke="none" d="M 21.40063509461097,-12.933012701892217 L 21.90063509461097,-12.06698729810778 A 115.77514041099462 115.77514041099462 0 0 1 54.45221111628808,-24.771666470116486 L 54.233373168056026,-25.747427687020277 A 116.77514041099462 116.77514041099462 0 0 0 21.40063509461097,-12.933012701892217 Z M 100.57810428411503,-26.7123630276253 L 100.40007068115094,-25.72833861928187 A 115.77514041099462 115.77514041099462 0 0 1 133.45225073921546,-14.389583495019833 L 132.0616919737861,-11.731323477661181 L 139.88661724062388,-11.587989711911142 L 135.30632909312126,-17.933930184831368 L 133.91577032769192,-15.275670167472716 A 116.77514041099462 116.77514041099462 0 0 0 100.57810428411503,-26.7123630276253"/><text text-anchor="middle" pointer-events="none" font-size="8px" fill="#000000" x="77.36778601758589" y="-25.052720158660364" font-family="sans-serif">twowheeler</text></g><g class="relationship" transform="translate(13.678435173161484 217.48855705888474) rotate(271.9565599534193)"><path class="outline" fill="#A5ABB6" stroke="none" d="M 25 0.5 L 58.2667152586434 0.5 L 58.2667152586434 -0.5 L 25 -0.5 Z M 80.2784340086434 0.5 L 113.5451492672868 0.5 L 113.5451492672868 3.5 L 120.5451492672868 0 L 113.5451492672868 -3.5 L 113.5451492672868 -0.5 L 80.2784340086434 -0.5 Z"/><text text-anchor="middle" pointer-events="none" font-size="8px" fill="#000000" x="69.2725746336434" y="3" font-family="sans-serif">road</text></g><g class="relationship" transform="translate(13.678435173161484 217.48855705888474) rotate(271.9565599534193)"><path class="outline" fill="#A5ABB6" stroke="none" d="M 21.40063509461097,12.933012701892217 L 21.90063509461097,12.06698729810778 A 99.0024617102675 99.0024617102675 0 0 0 46.27878762621861,22.090119644325554 L 46.025025468293194,23.057386291742404 A 100.0024617102675 100.0024617102675 0 0 1 21.40063509461097,12.933012701892217 Z M 92.28788522701389,24.125408611371867 L 92.07903017564743,23.147462003668394 A 99.0024617102675 99.0024617102675 0 0 0 116.89375198080188,14.259994163112482 L 115.51524425750334,11.595464850681058 L 123.34073833035829,11.487564360821132 L 118.73176227853325,17.81269991302105 L 117.35325455523471,15.148170600589625 A 100.0024617102675 100.0024617102675 0 0 1 92.28788522701389,24.125408611371867"/><text text-anchor="middle" pointer-events="none" font-size="8px" fill="#000000" x="69.10536844167449" y="28.80429724154986" font-family="sans-serif">twowheeler</text></g><g class="relationship" transform="translate(158.3419040167503 236.34199211195087) rotate(255.15364254810459)"><path class="outline" fill="#A5ABB6" stroke="none" d="M 25 0.5 L 59.4250845584925 0.5 L 59.4250845584925 -0.5 L 25 -0.5 Z M 81.4368033084925 0.5 L 115.861887866985 0.5 L 115.861887866985 3.5 L 122.861887866985 0 L 115.861887866985 -3.5 L 115.861887866985 -0.5 L 81.4368033084925 -0.5 Z"/><text text-anchor="middle" pointer-events="none" font-size="8px" fill="#000000" x="70.4309439334925" y="3" transform="rotate(180 70.4309439334925 0)" font-family="sans-serif">road</text></g><g class="relationship" transform="translate(158.3419040167503 236.34199211195087) rotate(255.15364254810459)"><path class="outline" fill="#A5ABB6" stroke="none" d="M 21.40063509461097,-12.933012701892217 L 21.90063509461097,-12.06698729810778 A 101.36215355184213 101.36215355184213 0 0 1 60.684263966853536,-24.946283981114206 L 60.566888324300784,-25.939371569665852 A 102.36215355184213 102.36215355184213 0 0 0 21.40063509461097,-12.933012701892217 Z M 79.96356418545948,-26.38042258536113 L 79.89144913063906,-25.383026265502153 A 101.36215355184213 101.36215355184213 0 0 1 119.22040215545186,-14.279891324377791 L 117.84004404394825,-11.6163201344138 L 125.66546128395177,-11.50298426253004 L 121.06087963745667,-17.831319577663113 L 119.68052152595305,-15.167748387699122 A 102.36215355184213 102.36215355184213 0 0 0 79.96356418545948,-26.38042258536113"/><text text-anchor="middle" pointer-events="none" font-size="8px" fill="#000000" x="70.26611940699105" y="-23.120617762028886" transform="rotate(180 70.26611940699105 -26.120617762028886)" font-family="sans-serif">trek</text></g><g class="relationship" transform="translate(158.3419040167503 236.34199211195087) rotate(187.4252886409862)"><path class="outline" fill="#A5ABB6" stroke="none" d="M 24.018736134675446,-6.953439040707552 L 24.277555179777966,-5.987513214418485 A 182.7468629332487 182.7468629332487 0 0 1 59.77369310890725,-11.832955168733918 L 59.709110710931725,-12.830867546586688 A 183.7468629332487 183.7468629332487 0 0 0 24.018736134675446,-6.953439040707552 Z M 79.08744903395863,-13.060862741158246 L 79.04656928681953,-12.061698667407654 A 182.7468629332487 182.7468629332487 0 0 1 114.67144402174247,-7.060368879632207 L 113.96398147616912,-4.1449792407312795 L 121.59193027010686,-5.89552121311122 L 115.61472741584026,-10.947555064833443 L 114.90726487026691,-8.032165425932515 A 183.7468629332487 183.7468629332487 0 0 0 79.08744903395863,-13.060862741158246"/><text text-anchor="middle" pointer-events="none" font-size="8px" fill="#000000" x="69.40117949399014" y="-9.701556355544483" transform="rotate(180 69.40117949399014 -12.701556355544483)" font-family="sans-serif">trek</text></g><g class="relationship" transform="translate(158.3419040167503 236.34199211195087) rotate(187.4252886409862)"><path class="outline" fill="#A5ABB6" stroke="none" d="M 24.018736134675446,6.953439040707552 L 24.277555179777966,5.987513214418485 A 182.7468629332487 182.7468629332487 0 0 0 58.44256477403647,11.741927035402284 L 58.370698375047155,12.739341302743753 A 183.7468629332487 183.7468629332487 0 0 1 24.018736134675446,6.953439040707552 Z M 80.4276566353038,13.00112816610428 L 80.37948311683195,12.002289184026552 A 182.7468629332487 182.7468629332487 0 0 0 114.67144402174247,7.060368879632207 L 113.96398147616912,4.1449792407312795 L 121.59193027010686,5.89552121311122 L 115.61472741584026,10.947555064833443 L 114.90726487026691,8.032165425932515 A 183.7468629332487 183.7468629332487 0 0 1 80.4276566353038,13.00112816610428"/><text text-anchor="middle" pointer-events="none" font-size="8px" fill="#000000" x="69.4011794939902" y="15.701556355544483" transform="rotate(180 69.4011794939902 12.701556355544483)" font-family="sans-serif">road</text></g></g><g class="layer nodes"><g class="node" aria-label="graph-node1" transform="translate(158.3419040167503,236.34199211195087)" style="touch-action: none; -webkit-tap-highlight-color: rgba(0, 0, 0, 0);"><circle class="outline" cx="0" cy="0" r="25" fill="#57C7E3" stroke="#23b3d7" stroke-width="2px"/><text class="caption" text-anchor="middle" pointer-events="none" x="0" y="5" font-size="10px" fill="#2A2C34" font-family="sans-serif"> Darjeeling</text></g><g class="node" aria-label="graph-node3" transform="translate(-43.5535186990849,-85.72669717730157)" style="touch-action: none; -webkit-tap-highlight-color: rgba(0, 0, 0, 0);"><circle class="outline" cx="0" cy="0" r="25" fill="#F16667" stroke="#eb2728" stroke-width="2px"/><text class="caption" text-anchor="middle" pointer-events="none" x="0" y="5" font-size="10px" fill="#FFFFFF" font-family="sans-serif"> Sandakp…</text></g><g class="node" aria-label="graph-node0" transform="translate(120.45555981391914,93.41626732269734)" style="touch-action: none; -webkit-tap-highlight-color: rgba(0, 0, 0, 0);"><circle class="outline" cx="0" cy="0" r="25" fill="#57C7E3" stroke="#23b3d7" stroke-width="2px"/><text class="caption" text-anchor="middle" pointer-events="none" x="0" y="5" font-size="10px" fill="#2A2C34" font-family="sans-serif"> Rimbik</text></g><g class="node" aria-label="graph-node2" transform="translate(139.44671472054577,-35.97239982732833)" style="touch-action: none; -webkit-tap-highlight-color: rgba(0, 0, 0, 0);"><circle class="outline" cx="0" cy="0" r="25" fill="#D9C8AE" stroke="#c0a378" stroke-width="2px"/><text class="caption" text-anchor="middle" pointer-events="none" x="0" y="5" font-size="10px" fill="#2A2C34" font-family="sans-serif"> BhikeBh…</text></g><g class="node" aria-label="graph-node4" transform="translate(55.66999565443255,-89.58128032837612)" style="touch-action: none; -webkit-tap-highlight-color: rgba(0, 0, 0, 0);"><circle class="outline" cx="0" cy="0" r="25" fill="#D9C8AE" stroke="#c0a378" stroke-width="2px"/><text class="caption" text-anchor="middle" pointer-events="none" x="0" y="5" font-size="10px" fill="#2A2C34" font-family="sans-serif"> Sirikhola</text></g><g class="node" aria-label="graph-node5" transform="translate(34.77197636517186,-234.62254952464514)" style="touch-action: none; -webkit-tap-highlight-color: rgba(0, 0, 0, 0);"><circle class="outline" cx="0" cy="0" r="25" fill="#D9C8AE" stroke="#c0a378" stroke-width="2px"/><text class="caption" text-anchor="middle" pointer-events="none" x="0" y="5" font-size="10px" fill="#2A2C34" font-family="sans-serif"> Gurdum</text></g><g class="node" aria-label="graph-node8" transform="translate(-97.02073323833889,-179.5604495118571)" style="touch-action: none; -webkit-tap-highlight-color: rgba(0, 0, 0, 0);"><circle class="outline" cx="0" cy="0" r="25" fill="#D9C8AE" stroke="#c0a378" stroke-width="2px"/><text class="caption" text-anchor="middle" pointer-events="none" x="0" y="5" font-size="10px" fill="#2A2C34" font-family="sans-serif"> Rammam</text></g><g class="node" aria-label="graph-node9" transform="translate(-195.01698960513247,-68.53024819228789)" style="touch-action: none; -webkit-tap-highlight-color: rgba(0, 0, 0, 0);"><circle class="outline" cx="0" cy="0" r="25" fill="#F16667" stroke="#eb2728" stroke-width="2px"/><text class="caption" text-anchor="middle" pointer-events="none" x="0" y="5" font-size="10px" fill="#FFFFFF" font-family="sans-serif"> Sabargr…</text></g><g class="node" aria-label="graph-node6" transform="translate(13.678435173161484,217.48855705888474)" style="touch-action: none; -webkit-tap-highlight-color: rgba(0, 0, 0, 0);"><circle class="outline" cx="0" cy="0" r="25" fill="#D9C8AE" stroke="#c0a378" stroke-width="2px"/><text class="caption" text-anchor="middle" pointer-events="none" x="0" y="5" font-size="10px" fill="#2A2C34" font-family="sans-serif"> Tumbling</text></g><g class="node" aria-label="graph-node7" transform="translate(18.64760516828022,72.02826067256352)" style="touch-action: none; -webkit-tap-highlight-color: rgba(0, 0, 0, 0);"><circle class="outline" cx="0" cy="0" r="25" fill="#D9C8AE" stroke="#c0a378" stroke-width="2px"/><text class="caption" text-anchor="middle" pointer-events="none" x="0" y="5" font-size="10px" fill="#2A2C34" font-family="sans-serif"> Gairibus</text></g></g></svg>